<svg width="24" height="24" viewBox="0 0 24 24" fill="none" xmlns="http://www.w3.org/2000/svg">
<path fill-rule="evenodd" clip-rule="evenodd" d="M16.0587 15.0968H17.129L23.8897 21.871L21.871 23.8897L15.0968 17.129V16.0587L14.731 15.6794C13.1865 17.0071 11.1813 17.8065 9 17.8065C4.13633 17.8065 0.19355 13.8637 0.19355 9C0.19355 4.13633 4.13633 0.193548 9 0.193548C13.8637 0.193548 17.8065 4.13633 17.8065 9C17.8079 11.1037 17.053 13.1377 15.6794 14.731L16.0587 15.0968ZM2.90323 9C2.90323 12.3735 5.62645 15.0968 9 15.0968C12.3736 15.0968 15.0968 12.3735 15.0968 9C15.0968 5.62645 12.3736 2.90323 9 2.90323C5.62645 2.90323 2.90323 5.62645 2.90323 9Z" fill="#777777"/>
</svg>
