<svg width="32" height="32" viewBox="0 0 32 32" fill="none" xmlns="http://www.w3.org/2000/svg">
<path fill-rule="evenodd" clip-rule="evenodd" d="M27.4999 2.00001C28.5909 2.0044 29.6797 2.09803 30.7549 2.27993C31.4496 2.39691 31.9677 2.97322 31.9998 3.66483V21.3444C32.0063 21.7827 31.8138 22.201 31.4746 22.4858C31.1353 22.7706 30.6846 22.8922 30.2449 22.8177C25.8799 22.1254 21.4156 23.199 17.87 25.7937L17.69 25.8969H17.525C17.189 26.0344 16.811 26.0344 16.475 25.8969H16.31L16.13 25.7937C12.5598 23.2559 8.09764 22.2413 3.75514 22.9797C3.31538 23.0543 2.86465 22.9327 2.52541 22.6479C2.18618 22.3631 1.99366 21.9447 2.00016 21.5064V3.82689C1.98943 3.10177 2.51754 2.47681 3.24515 2.3536C4.32034 2.17169 5.40909 2.07806 6.50011 2.07367C10.215 2.04867 13.8593 3.07135 17 5.02026C20.1327 3.04542 23.7775 1.99701 27.4999 2.00001ZM6.42857 19.8111C9.41503 19.8092 12.357 20.5605 15 22V7.68346C12.4574 5.94372 9.47627 5.0178 6.42857 5.02129C5.95278 4.9929 5.4758 4.9929 5 5.02129V19.8111H6.42857ZM29 19.8187H27.5714C24.585 19.8168 21.643 20.5655 19 22V7.67415C21.5426 5.94045 24.5237 5.01774 27.5714 5.02122C28.0472 4.99293 28.5242 4.99293 29 5.02122V19.8187ZM27.4861 26C28.5757 26.0042 29.663 26.0945 30.7368 26.2698C31.1306 26.3291 31.4833 26.5347 31.7167 26.8412C31.95 27.1477 32.0449 27.5298 31.9801 27.9028C31.8216 28.6705 31.0379 29.1721 30.2274 29.0246C25.8907 28.3128 21.4344 29.2908 17.8688 31.7368C17.3488 32.0877 16.6512 32.0877 16.1312 31.7368C12.5656 29.2908 8.10934 28.3128 3.77256 29.0246C2.96209 29.1721 2.17838 28.6705 2.01988 27.9028C1.95514 27.5298 2.04996 27.1477 2.28333 26.8412C2.51671 26.5347 2.86938 26.3291 3.26323 26.2698C4.33701 26.0945 5.42433 26.0042 6.51392 26C10.2314 25.9971 13.8714 27.0076 17 28.911C20.1286 27.0076 23.7686 25.9971 27.4861 26Z" fill="#F15454"/>
</svg>
